<svg width="208" height="68" viewBox="0 0 208 68" fill="none" xmlns="http://www.w3.org/2000/svg">
<path d="M85.6365 57.2186V8.43214C89.5973 8.00667 95.1864 7.79393 102.4 7.79393C108.337 7.79393 112.438 8.86922 114.693 11.0237C116.959 13.1626 118.092 17.1776 118.092 23.0723C118.092 28.9632 116.994 32.982 114.793 35.121C112.608 37.26 108.713 38.3314 103.108 38.3314C99.2401 38.3314 95.4959 38.1264 91.8716 37.7087V57.2186H85.6365ZM91.8716 32.9627H102.331C105.955 32.9163 108.442 32.2278 109.788 30.8933C111.134 29.5434 111.807 26.9403 111.807 23.0723C111.807 19.2044 111.122 16.5858 109.753 15.2165C108.384 13.8473 105.912 13.1626 102.331 13.1626C97.1978 13.1626 93.7128 13.1859 91.8716 13.2323V32.9627ZM161.854 8.43214V54.747C161.854 56.3948 161.054 57.2186 159.456 57.2186H153.38C152.1 57.2186 151.179 56.5572 150.614 55.2305L134.148 20.6549C132.535 17.166 131.615 15.027 131.387 14.2341H130.246C130.443 16.11 130.54 18.249 130.54 20.6549V57.2186H124.308V10.8999C124.308 9.25602 125.136 8.43214 126.795 8.43214H132.663C133.928 8.43214 134.845 9.08969 135.409 10.4009L151.392 44.1333C152.579 46.4464 153.689 48.8058 154.726 51.2078H155.917C155.778 48.6666 155.708 46.1911 155.708 43.7852V8.43214H161.854ZM188.578 36.5715L178.46 34.0341C175.021 33.1832 172.557 31.6631 171.072 29.4777C169.587 27.2768 168.848 24.2675 168.848 20.446C168.848 17.6185 169.138 15.3442 169.726 13.6307C170.325 11.9017 171.343 10.6098 172.781 9.74338C174.22 8.86922 175.822 8.29676 177.582 8.01827C179.353 7.73204 181.724 7.58893 184.695 7.58893C190.435 7.67789 195.262 8.14978 199.176 9.0046L198.762 13.5262C194.194 13.2826 189.595 13.1626 184.969 13.1626C182.896 13.1626 181.368 13.2129 180.378 13.3174C179.388 13.4102 178.421 13.6926 177.477 14.1644C176.533 14.6363 175.907 15.379 175.597 16.3924C175.296 17.4019 175.149 18.8021 175.149 20.5852C175.149 23.1884 175.609 25.0295 176.53 26.1087C177.45 27.1917 179.036 28.0156 181.291 28.5803L191.201 31.0481C194.825 31.9454 197.37 33.481 198.832 35.6548C200.294 37.8209 201.025 40.8572 201.025 44.7716C201.025 50.1441 199.811 53.7065 197.382 55.4548C194.953 57.1954 190.725 58.0618 184.695 58.0618C179.55 58.0618 174.503 57.6132 169.556 56.7158L169.985 52.1245C177.903 52.4108 182.873 52.5345 184.9 52.4881C188.768 52.4881 191.367 51.993 192.701 51.0028C194.051 50.0126 194.724 47.8891 194.724 44.6323C194.724 41.9402 194.264 40.0643 193.343 39.0044C192.431 37.9446 190.845 37.1362 188.578 36.5715Z" stroke="#FF2A71" stroke-width="3.57039"/>
<path d="M92.2461 54.9647V6.18207C96.1953 5.76047 101.781 5.54773 109.002 5.54773C114.943 5.54773 119.043 6.62302 121.302 8.76587C123.561 10.901 124.69 14.9198 124.69 20.8184C124.69 26.7093 123.592 30.7281 121.395 32.871C119.206 35.0177 115.307 36.0891 109.698 36.0891C105.838 36.0891 102.094 35.8802 98.4658 35.4547V54.9647H92.2461ZM98.4658 30.7049H108.925C112.553 30.6662 115.04 29.9739 116.382 28.6317C117.72 27.2818 118.393 24.6786 118.393 20.8184C118.393 16.9505 117.705 14.3357 116.336 12.9742C114.974 11.6049 112.503 10.9164 108.925 10.9164C103.788 10.9164 100.299 10.9397 98.4658 10.9783V30.7049Z" fill="black"/>
<path d="M168.45 6.18201V52.4891C168.45 54.1408 167.649 54.9646 166.052 54.9646H159.972C158.691 54.9646 157.775 54.3071 157.218 52.9842L140.74 18.4047C139.131 14.9197 138.21 12.773 137.986 11.9685H136.841C137.035 13.856 137.135 16.0027 137.135 18.4047V54.9646H130.916V8.6575C130.916 7.00975 131.739 6.18201 133.391 6.18201H139.255C140.524 6.18201 141.44 6.84343 142.009 8.1624L157.991 41.8909C159.167 44.1924 160.273 46.548 161.318 48.9616H162.509C162.374 46.4165 162.308 43.941 162.308 41.5351V6.18201H168.45Z" fill="black"/>
<path d="M195.167 34.3253L185.064 31.7724C181.618 30.9292 179.154 29.413 177.669 27.2237C176.183 25.0267 175.441 22.0213 175.441 18.2037C175.441 15.3685 175.735 13.0941 176.323 11.3806C176.918 9.65936 177.936 8.36359 179.371 7.49717C180.802 6.62301 182.403 6.04282 184.167 5.76433C185.938 5.4781 188.313 5.33112 191.284 5.33112C197.039 5.42395 201.87 5.89584 205.781 6.73905L205.348 11.2723C200.776 11.0363 196.181 10.9164 191.562 10.9164C189.489 10.9164 187.957 10.9629 186.967 11.0557C185.977 11.1485 185.006 11.4347 184.058 11.9066C183.119 12.3824 182.496 13.125 182.186 14.1346C181.885 15.148 181.738 16.5482 181.738 18.3429C181.738 20.9344 182.194 22.7678 183.115 23.8509C184.031 24.9339 185.625 25.7616 187.895 26.3264L197.782 28.8019C201.41 29.6992 203.959 31.2309 205.425 33.397C206.887 35.563 207.622 38.6071 207.622 42.5254C207.622 47.9018 206.404 51.4603 203.971 53.2009C201.545 54.9454 197.318 55.8156 191.284 55.8156C186.147 55.8156 181.103 55.367 176.152 54.4696L176.57 49.8745C184.492 50.153 189.466 50.2729 191.5 50.2303C195.357 50.2303 197.956 49.7352 199.298 48.745C200.648 47.7548 201.325 45.6352 201.325 42.3861C201.325 39.694 200.865 37.8181 199.948 36.7544C199.027 35.6945 197.434 34.8823 195.167 34.3253Z" fill="black"/>
<mask id="mask0_21_129" style="mask-type:luminance" maskUnits="userSpaceOnUse" x="0" y="0" width="55" height="68">
<path d="M0 0H54.4608V67.3333H0V0Z" fill="white"/>
</mask>
<g mask="url(#mask0_21_129)">
<mask id="mask1_21_129" style="mask-type:luminance" maskUnits="userSpaceOnUse" x="-11" y="-5" width="77" height="77">
<path d="M-10.4434 57.6596L3.45033 -4.68024L65.7863 9.21345L51.8926 71.5494L-10.4434 57.6596Z" fill="white"/>
</mask>
<g mask="url(#mask1_21_129)">
<mask id="mask2_21_129" style="mask-type:luminance" maskUnits="userSpaceOnUse" x="-11" y="-5" width="77" height="77">
<path d="M-10.4434 57.6596L3.45033 -4.68024L65.7863 9.21345L51.8926 71.5494L-10.4434 57.6596Z" fill="white"/>
</mask>
<g mask="url(#mask2_21_129)">
<path fill-rule="evenodd" clip-rule="evenodd" d="M26.6696 24.7433C24.4146 26.1783 21.9237 27.7642 19.6686 29.1953C14.8878 32.2355 13.7545 39.4492 17.5064 45.3517C20.5041 50.0668 24.1864 55.8571 27.1841 60.576C30.936 66.4785 37.9447 68.5169 42.7255 65.4806C44.9805 64.0456 47.4753 62.4597 49.7304 61.0286C54.5112 57.9883 55.6406 50.7785 51.8887 44.8721C49.7613 41.5263 47.2897 37.639 44.965 33.9761C44.3616 33.0323 43.1046 32.7499 42.1608 33.3495C41.2131 33.9529 40.9308 35.21 41.5342 36.1576C43.8588 39.8167 46.3343 43.704 48.4617 47.0536C50.8985 50.8868 50.6548 55.625 47.5488 57.5977L40.5478 62.0497C37.4419 64.0224 33.0479 62.2315 30.6111 58.3945C27.6173 53.6794 23.935 47.8891 20.9373 43.1702C18.5005 39.3371 18.7403 34.5988 21.8463 32.6262L28.8512 28.1742C29.7949 27.5746 30.0773 26.3175 29.4778 25.3699C28.8744 24.4261 27.6173 24.1438 26.6696 24.7433ZM28.1124 42.4817C30.3674 41.0506 32.8584 39.4647 35.1134 38.0297C39.8942 34.9934 41.0275 27.7796 37.2756 21.8771C34.2779 17.1582 30.5956 11.3718 27.5979 6.65287C23.846 0.746501 16.8373 -1.28804 12.0565 1.7483C9.80149 3.18331 7.30666 4.7653 5.05164 6.20032C0.27085 9.23666 -0.858594 16.4504 2.89332 22.3529C5.0207 25.7025 7.49232 29.5898 9.81696 33.2528C10.4204 34.1966 11.6774 34.4789 12.6212 33.8755C13.5689 33.276 13.8512 32.0189 13.2478 31.0713C10.9232 27.4083 8.4477 23.521 6.32033 20.1752C3.88352 16.3421 4.1272 11.6038 7.23316 9.62732L14.238 5.17918C17.3401 3.20652 21.7341 4.99738 24.1709 8.83052C27.1647 13.5494 30.847 19.3398 33.8447 24.0548C36.2815 27.8918 36.0417 32.63 32.9357 34.6027L25.9309 39.0547C24.9871 39.6542 24.7047 40.9113 25.3042 41.859C25.9076 42.8028 27.1647 43.0851 28.1124 42.4817Z" fill="#FF2A71"/>
</g>
</g>
</g>
<mask id="mask3_21_129" style="mask-type:luminance" maskUnits="userSpaceOnUse" x="7" y="0" width="56" height="68">
<path d="M7.92163 0H62.3824V67.3333H7.92163V0Z" fill="white"/>
</mask>
<g mask="url(#mask3_21_129)">
<mask id="mask4_21_129" style="mask-type:luminance" maskUnits="userSpaceOnUse" x="-3" y="-5" width="77" height="77">
<path d="M-2.60693 57.6596L11.2868 -4.68024L73.6227 9.21345L59.7329 71.5494L-2.60693 57.6596Z" fill="white"/>
</mask>
<g mask="url(#mask4_21_129)">
<mask id="mask5_21_129" style="mask-type:luminance" maskUnits="userSpaceOnUse" x="-3" y="-5" width="77" height="77">
<path d="M-2.60693 57.6596L11.2868 -4.68024L73.6227 9.21345L59.7329 71.5494L-2.60693 57.6596Z" fill="white"/>
</mask>
<g mask="url(#mask5_21_129)">
<mask id="mask6_21_129" style="mask-type:luminance" maskUnits="userSpaceOnUse" x="-3" y="-5" width="77" height="77">
<path d="M-2.60693 57.6596L11.2868 -4.68024L73.6227 9.21345L59.7329 71.5494L-2.60693 57.6596Z" fill="white"/>
</mask>
<g mask="url(#mask6_21_129)">
<path fill-rule="evenodd" clip-rule="evenodd" d="M34.6647 24.6079C32.3981 26.0468 29.8955 27.6365 27.6289 29.0754C22.8288 32.1272 21.6955 39.3719 25.4628 45.2976C28.4721 50.0358 32.166 55.8494 35.1791 60.5876C38.9465 66.5172 45.9862 68.5633 50.7863 65.5115C53.0491 64.0726 55.5555 62.4829 57.8183 61.0402C62.6184 57.9922 63.7556 50.7514 59.9882 44.818C57.8531 41.4606 55.3699 37.554 53.0336 33.8755C52.4302 32.9279 51.1693 32.6455 50.2177 33.2489C49.2662 33.8523 48.9839 35.1171 49.5911 36.0648C51.9235 39.7432 54.4067 43.646 56.5457 47.0072C58.9903 50.8597 58.7466 55.6173 55.629 57.5977L48.5971 62.069C45.4795 64.0494 41.07 62.2508 38.6216 58.3984C35.6123 53.6601 31.9146 47.8466 28.9092 43.1122C26.4569 39.2597 26.7006 34.5021 29.8182 32.5217L36.854 28.0504C37.8016 27.447 38.084 26.186 37.4806 25.2345C36.8772 24.283 35.6123 24.0045 34.6647 24.6079ZM36.1113 42.4198C38.3741 40.981 40.8766 39.3874 43.1433 37.9485C47.9434 34.8967 49.0806 27.6559 45.3132 21.7263C42.3 16.988 38.6061 11.1745 35.5969 6.44014C31.8256 0.506699 24.7898 -1.53558 19.9897 1.51237C17.7231 2.95124 15.2205 4.54484 12.9539 5.98372C8.15375 9.03554 7.01657 16.2763 10.7878 22.2059C12.9229 25.5672 15.4023 29.4699 17.7385 33.1484C18.3419 34.0999 19.6068 34.3784 20.5583 33.775C21.5098 33.1716 21.7883 31.9106 21.1849 30.9591C18.8486 27.2845 16.3654 23.3779 14.2303 20.0167C11.7819 16.168 12.0256 11.4105 15.1431 9.4262L22.1751 4.95871C25.2926 2.97445 29.706 4.77692 32.1544 8.62553C35.1598 13.3638 38.8576 19.1773 41.8668 23.9156C44.3152 27.7642 44.0716 32.5256 40.954 34.506L33.9221 38.9735C32.9705 39.5769 32.6882 40.8417 33.2916 41.7894C33.8988 42.7409 35.1598 43.0232 36.1113 42.4198Z" fill="black"/>
</g>
</g>
</g>
</g>
</svg>
